<svg width="89" height="30" viewBox="0 0 89 30" fill="none" xmlns="http://www.w3.org/2000/svg">
<path fill-rule="evenodd" clip-rule="evenodd" d="M88.6572 3.58995V0.293945H87.4412V3.58995H88.6572ZM4.544 28.9339V21.0939H4.608C5.16267 21.9046 5.872 22.5179 6.736 22.9339C7.6 23.3499 8.544 23.5579 9.568 23.5579C10.784 23.5579 11.8453 23.3233 12.752 22.8539C13.6587 22.3846 14.416 21.7553 15.024 20.9659C15.632 20.1766 16.0853 19.2699 16.384 18.2459C16.6827 17.2219 16.832 16.1553 16.832 15.0459C16.832 13.8726 16.6827 12.7473 16.384 11.6699C16.0853 10.5926 15.6267 9.64861 15.008 8.83794C14.3893 8.02728 13.6107 7.37661 12.672 6.88595C11.7333 6.39528 10.6133 6.14995 9.312 6.14995C8.288 6.14995 7.34933 6.35261 6.496 6.75795C5.64267 7.16328 4.93867 7.81395 4.384 8.70995H4.32V6.59795H0V28.9339H4.544ZM8.352 20.1659C7.62667 20.1659 7.008 20.0166 6.496 19.7179C5.984 19.4193 5.57333 19.0299 5.264 18.5499C4.95467 18.0699 4.73067 17.5099 4.592 16.8699C4.45333 16.2299 4.384 15.5793 4.384 14.9179C4.384 14.2353 4.448 13.5739 4.576 12.9339C4.704 12.2939 4.92267 11.7286 5.232 11.2379C5.54133 10.7473 5.94667 10.3473 6.448 10.0379C6.94933 9.72861 7.57333 9.57395 8.32 9.57395C9.04533 9.57395 9.65867 9.72861 10.16 10.0379C10.6613 10.3473 11.072 10.7526 11.392 11.2539C11.712 11.7553 11.9413 12.3259 12.08 12.9659C12.2187 13.6059 12.288 14.2566 12.288 14.9179C12.288 15.5793 12.224 16.2299 12.096 16.8699C11.968 17.5099 11.7493 18.0699 11.44 18.5499C11.1307 19.0299 10.7253 19.4193 10.224 19.7179C9.72267 20.0166 9.09867 20.1659 8.352 20.1659ZM27.2418 23.1099C26.2605 23.4086 25.2578 23.5579 24.2338 23.5579C23.4445 23.5579 22.7085 23.4619 22.0258 23.2699C21.3432 23.0779 20.7458 22.7793 20.2338 22.3739C19.7218 21.9686 19.3218 21.4566 19.0338 20.8379C18.7458 20.2193 18.6018 19.4833 18.6018 18.6299C18.6018 17.6913 18.7672 16.9179 19.0978 16.3099C19.4285 15.7019 19.8552 15.2166 20.3778 14.8539C20.9005 14.4913 21.4978 14.2193 22.1698 14.0379C22.8418 13.8566 23.5192 13.7126 24.2018 13.6059C24.8845 13.4993 25.5565 13.4139 26.2178 13.3499C26.8792 13.2859 27.4658 13.1899 27.9778 13.0619C28.4898 12.9339 28.8952 12.7473 29.1938 12.5019C29.4925 12.2566 29.6312 11.8993 29.6098 11.4299C29.6098 10.9393 29.5298 10.5499 29.3698 10.2619C29.2098 9.97395 28.9965 9.74995 28.7298 9.58994C28.4632 9.42994 28.1538 9.32328 27.8018 9.26995C27.4498 9.21661 27.0712 9.18995 26.6658 9.18995C25.7698 9.18995 25.0658 9.38195 24.5538 9.76595C24.0418 10.1499 23.7432 10.7899 23.6578 11.6859H19.1138C19.1778 10.6193 19.4445 9.73395 19.9138 9.02995C20.3832 8.32594 20.9805 7.76061 21.7058 7.33395C22.4312 6.90728 23.2472 6.60328 24.1538 6.42195C25.0605 6.24061 25.9725 6.14995 26.8898 6.14995C27.7218 6.14995 28.5645 6.20861 29.4178 6.32595C30.2712 6.44328 31.0498 6.67261 31.7538 7.01395C32.4578 7.35528 33.0338 7.82995 33.4818 8.43795C33.9298 9.04595 34.1538 9.85128 34.1538 10.8539V19.4619C34.1538 20.2086 34.1965 20.9233 34.2818 21.6059C34.3672 22.2886 34.5165 22.8006 34.7298 23.1419H30.1218C30.0365 22.8859 29.9672 22.6246 29.9138 22.3579C29.8605 22.0913 29.8232 21.8193 29.8018 21.5419C29.0765 22.2886 28.2232 22.8113 27.2418 23.1099ZM25.9298 20.5499C25.5672 20.5499 25.2152 20.5179 24.8738 20.4539C24.5325 20.3899 24.2338 20.2779 23.9778 20.1179C23.7218 19.9579 23.5192 19.7393 23.3698 19.4619C23.2205 19.1846 23.1458 18.8433 23.1458 18.4379C23.1458 18.0113 23.2205 17.6593 23.3698 17.3819C23.5192 17.1046 23.7165 16.8753 23.9618 16.6939C24.2072 16.5126 24.4952 16.3686 24.8258 16.2619C25.1565 16.1553 25.4925 16.0699 25.8338 16.0059C26.1965 15.9419 26.5592 15.8886 26.9218 15.8459C27.2845 15.8033 27.6312 15.7499 27.9618 15.6859C28.2925 15.6219 28.6018 15.5419 28.8898 15.4459C29.1778 15.3499 29.4178 15.2166 29.6098 15.0459V16.7419C29.6098 16.9979 29.5832 17.3393 29.5298 17.7659C29.4765 18.1926 29.3325 18.6139 29.0978 19.0299C28.8632 19.4459 28.5005 19.8033 28.0098 20.1019C27.5192 20.4006 26.8258 20.5499 25.9298 20.5499ZM43.5397 28.0699C42.665 28.6459 41.449 28.9339 39.8917 28.9339C39.4224 28.9339 38.9584 28.9179 38.4997 28.8859C38.041 28.8539 37.577 28.8166 37.1077 28.7739V25.0299C37.5344 25.0726 37.9717 25.1153 38.4197 25.1579C38.8677 25.2006 39.3157 25.2113 39.7637 25.1899C40.361 25.1259 40.8037 24.8913 41.0917 24.4859C41.3797 24.0806 41.5237 23.6326 41.5237 23.1419C41.5237 22.7793 41.4597 22.4379 41.3317 22.1179L35.5397 6.59795H40.3717L44.1157 17.9259H44.1797L47.7957 6.59795H52.4997L45.5877 25.1899C45.097 26.5339 44.4144 27.4939 43.5397 28.0699ZM58.5895 23.5259C59.3789 23.5259 60.1042 23.4299 60.7655 23.2379C61.4269 23.0459 62.0189 22.7793 62.5415 22.4379C63.0642 22.0966 63.5069 21.7073 63.8695 21.2699C64.2322 20.8326 64.5095 20.3686 64.7015 19.8779H64.7655V20.7419C64.7655 21.0833 64.7922 21.3979 64.8455 21.6859C64.8989 21.9739 65.0002 22.2246 65.1495 22.4379C65.2989 22.6513 65.5175 22.8219 65.8055 22.9499C66.0935 23.0779 66.4829 23.1419 66.9735 23.1419C67.3149 23.1419 67.6455 23.0993 67.9655 23.0139V21.9899C67.5815 22.0539 67.2829 22.0859 67.0695 22.0859C66.7922 22.0859 66.5789 22.0273 66.4295 21.9099C66.2802 21.7926 66.1735 21.6379 66.1095 21.4459C66.0455 21.2539 66.0082 21.0406 65.9975 20.8059C65.9869 20.5713 65.9815 20.3366 65.9815 20.1019V10.5339C65.9815 9.27528 65.5282 8.25661 64.6215 7.47795C63.7149 6.69928 62.2695 6.30995 60.2855 6.30995C58.3015 6.30995 56.7709 6.76328 55.6935 7.66995C54.6162 8.57661 54.0349 9.93661 53.9495 11.7499H55.1655C55.2509 10.2779 55.7469 9.17928 56.6535 8.45395C57.5602 7.72861 58.7495 7.36594 60.2215 7.36594C61.0535 7.36594 61.7575 7.45128 62.3335 7.62195C62.9095 7.79261 63.3789 8.02728 63.7415 8.32594C64.1042 8.62461 64.3709 8.96595 64.5415 9.34995C64.7122 9.73394 64.7975 10.1499 64.7975 10.5979C64.7975 11.1739 64.7655 11.6539 64.7015 12.0379C64.6375 12.4219 64.4775 12.7366 64.2215 12.9819C63.9655 13.2273 63.5869 13.4193 63.0855 13.5579C62.5842 13.6966 61.8962 13.7979 61.0215 13.8619L59.1335 14.0219C58.4722 14.0859 57.7842 14.1926 57.0695 14.3419C56.3549 14.4913 55.7042 14.7419 55.1175 15.0939C54.5309 15.4459 54.0455 15.9259 53.6615 16.5339C53.2775 17.1419 53.0855 17.9259 53.0855 18.8859C53.0855 20.4646 53.5655 21.6326 54.5255 22.3899C55.4855 23.1473 56.8402 23.5259 58.5895 23.5259ZM55.4535 21.5899C56.2215 22.1766 57.2775 22.4699 58.6215 22.4699C60.0082 22.4699 61.1069 22.2193 61.9175 21.7179C62.7282 21.2166 63.3469 20.6406 63.7735 19.9899C64.2002 19.3393 64.4722 18.7099 64.5895 18.1019C64.7069 17.4939 64.7655 17.0833 64.7655 16.8699V13.7979C64.4669 14.1606 64.0135 14.4059 63.4055 14.5339C62.7975 14.6619 62.1202 14.7579 61.3735 14.8219L59.3255 15.0139C58.7282 15.0779 58.1309 15.1686 57.5335 15.2859C56.9362 15.4033 56.3975 15.6006 55.9175 15.8779C55.4375 16.1553 55.0482 16.5339 54.7495 17.0139C54.4509 17.4939 54.3015 18.1179 54.3015 18.8859C54.3015 20.1019 54.6855 21.0033 55.4535 21.5899ZM71.1114 29.0299V19.7179H71.1754C71.6661 21.0619 72.4447 22.0326 73.5114 22.6299C74.578 23.2273 75.7941 23.5259 77.1594 23.5259C78.4181 23.5259 79.5114 23.3126 80.4394 22.8859C81.3674 22.4593 82.1354 21.8673 82.7434 21.1099C83.3514 20.3526 83.8047 19.4513 84.1034 18.4059C84.4021 17.3606 84.5514 16.2086 84.5514 14.9499C84.5514 13.7979 84.4021 12.6993 84.1034 11.6539C83.8047 10.6086 83.3514 9.69128 82.7434 8.90195C82.1354 8.11261 81.3674 7.48328 80.4394 7.01395C79.5114 6.54461 78.4181 6.30995 77.1594 6.30995C76.2634 6.30995 75.4687 6.44861 74.7754 6.72594C74.0821 7.00328 73.4901 7.34995 72.9994 7.76594C72.5087 8.18194 72.1141 8.63528 71.8154 9.12595C71.5167 9.61661 71.3034 10.0646 71.1754 10.4699H71.1114V6.69394H69.8954V29.0299H71.1114ZM74.2634 21.8459C75.0421 22.2619 76.0074 22.4699 77.1594 22.4699C78.2261 22.4699 79.1487 22.2673 79.9274 21.8619C80.7061 21.4566 81.3461 20.9126 81.8474 20.2299C82.3487 19.5473 82.7221 18.7526 82.9674 17.8459C83.2127 16.9393 83.3354 15.9739 83.3354 14.9499C83.3354 14.0113 83.2181 13.0886 82.9834 12.1819C82.7487 11.2753 82.3861 10.4646 81.8954 9.74995C81.4047 9.03528 80.7701 8.45928 79.9914 8.02195C79.2127 7.58461 78.2687 7.36595 77.1594 7.36595C76.0714 7.36595 75.1434 7.57928 74.3754 8.00595C73.6074 8.43261 72.9834 8.99795 72.5034 9.70195C72.0234 10.4059 71.6767 11.2113 71.4634 12.1179C71.2501 13.0246 71.1434 13.9686 71.1434 14.9499C71.1434 15.9313 71.2394 16.8753 71.4314 17.7819C71.6234 18.6886 71.9487 19.4886 72.4074 20.1819C72.8661 20.8753 73.4847 21.4299 74.2634 21.8459ZM87.4412 6.69395H88.6572V23.1419H87.4412V6.69395Z" fill="#36536B"/>
</svg>
